<svg xmlns="http://www.w3.org/2000/svg" xmlns:xlink="http://www.w3.org/1999/xlink" width="500" zoomAndPan="magnify" viewBox="0 0 375 374.999991" height="500" preserveAspectRatio="xMidYMid meet" version="1.0"><defs><filter x="0%" y="0%" width="100%" height="100%" id="6b067a432f"><feColorMatrix values="0 0 0 0 1 0 0 0 0 1 0 0 0 0 1 0 0 0 1 0" color-interpolation-filters="sRGB"/></filter><g/><mask id="8dd3d87671"><g filter="url(#6b067a432f)"><rect x="-37.5" width="450" fill="#000000" y="-37.499999" height="449.999989" fill-opacity="0.88"/></g></mask><clipPath id="1cb19a2077"><path d="M 0.480469 0 L 304 0 L 304 122.878906 L 0.480469 122.878906 Z M 0.480469 0 " clip-rule="nonzero"/></clipPath><clipPath id="5aab42a260"><rect x="0" width="308" y="0" height="123"/></clipPath></defs><g mask="url(#8dd3d87671)"><g transform="matrix(1, 0, 0, 1, 42, 126)"><g clip-path="url(#5aab42a260)"><g clip-path="url(#1cb19a2077)"><path fill="#ffffff" d="M 44.074219 0.433594 L 259.964844 0.433594 C 271.476562 0.433594 282.519531 5.003906 290.660156 13.132812 C 298.800781 21.265625 303.375 32.292969 303.375 43.792969 L 303.375 79.214844 C 303.375 90.714844 298.800781 101.742188 290.660156 109.875 C 282.519531 118.007812 271.476562 122.574219 259.964844 122.574219 L 44.074219 122.574219 C 20.097656 122.574219 0.664062 103.160156 0.664062 79.214844 L 0.664062 43.792969 C 0.664062 19.847656 20.097656 0.433594 44.074219 0.433594 Z M 44.074219 0.433594 " fill-opacity="1" fill-rule="nonzero"/></g><g fill="#000000" fill-opacity="1"><g transform="translate(4.254018, 89.822116)"><g/></g></g><g fill="#000000" fill-opacity="1"><g transform="translate(30.950839, 89.822116)"><g><path d="M 6.25 0 L 47.71875 0 L 47.71875 -13.9375 L 23.140625 -13.9375 L 23.140625 -23.058594 L 44.511719 -23.058594 L 44.511719 -36.742188 L 23.140625 -36.742188 L 23.140625 -45.355469 L 46.792969 -45.355469 L 46.792969 -59.121094 L 6.25 -59.121094 Z M 6.25 0 "/></g></g></g><g fill="#000000" fill-opacity="1"><g transform="translate(89.645332, 89.822116)"><g><path d="M 6.25 0 L 23.140625 0 L 23.140625 -29.984375 L 34.542969 -14.019531 L 45.609375 -14.019531 L 56.925781 -29.898438 L 56.925781 0 L 73.820312 0 L 73.820312 -59.121094 L 59.96875 -59.121094 L 40.035156 -30.996094 L 20.1875 -59.121094 L 6.25 -59.121094 Z M 6.25 0 "/></g></g></g><g fill="#000000" fill-opacity="1"><g transform="translate(176.884312, 89.822116)"><g><path d="M 6.25 0 L 23.140625 0 L 23.140625 -30.152344 L 45.609375 0 L 59.460938 0 L 59.460938 -59.121094 L 42.652344 -59.121094 L 42.652344 -29.140625 L 20.1875 -59.121094 L 6.25 -59.121094 Z M 6.25 0 "/></g></g></g><g fill="#56e5ec" fill-opacity="1"><g transform="translate(249.856249, 89.822116)"><g><path d="M 11.488281 1.097656 C 16.722656 1.097656 20.441406 -2.617188 20.441406 -7.6875 C 20.441406 -12.753906 16.722656 -16.46875 11.488281 -16.46875 C 6.164062 -16.46875 2.449219 -12.753906 2.449219 -7.6875 C 2.449219 -2.617188 6.164062 1.097656 11.488281 1.097656 Z M 11.488281 1.097656 "/></g></g></g><g fill="#ffffff" fill-opacity="1"><g transform="translate(279.922158, 89.822116)"><g/></g></g></g></g></g></svg>